<svg width="630" height="113" viewBox="0 0 630 113" fill="none" xmlns="http://www.w3.org/2000/svg">
<path d="M427.045 80.4318C425.803 80.4318 424.735 79.9924 423.841 79.1136C422.947 78.2197 422.5 77.1439 422.5 75.8864C422.5 74.6439 422.947 73.5833 423.841 72.7045C424.735 71.8106 425.803 71.3636 427.045 71.3636C428.288 71.3636 429.356 71.8106 430.25 72.7045C431.144 73.5833 431.591 74.6439 431.591 75.8864C431.591 76.7197 431.379 77.4848 430.955 78.1818C430.545 78.8636 430 79.4091 429.318 79.8182C428.636 80.2273 427.879 80.4318 427.045 80.4318ZM456.989 45.0909V50.5455H437.92V45.0909H456.989ZM443.034 36.7273H449.83V69.75C449.83 71.0682 450.027 72.0606 450.42 72.7273C450.814 73.3788 451.322 73.8258 451.943 74.0682C452.58 74.2955 453.269 74.4091 454.011 74.4091C454.557 74.4091 455.034 74.3712 455.443 74.2955C455.852 74.2197 456.17 74.1591 456.398 74.1136L457.625 79.7273C457.231 79.8788 456.67 80.0303 455.943 80.1818C455.216 80.3485 454.307 80.4394 453.216 80.4545C451.428 80.4848 449.761 80.1667 448.216 79.5C446.67 78.8333 445.42 77.803 444.466 76.4091C443.511 75.0152 443.034 73.2652 443.034 71.1591V36.7273ZM479.176 80.7045C475.737 80.7045 472.775 79.9697 470.29 78.5C467.82 77.0152 465.911 74.9318 464.562 72.25C463.229 69.553 462.562 66.3939 462.562 62.7727C462.562 59.197 463.229 56.0455 464.562 53.3182C465.911 50.5909 467.79 48.4621 470.199 46.9318C472.623 45.4015 475.456 44.6364 478.699 44.6364C480.669 44.6364 482.578 44.9621 484.426 45.6136C486.275 46.2652 487.934 47.2879 489.403 48.6818C490.873 50.0758 492.032 51.8864 492.881 54.1136C493.729 56.3258 494.153 59.0152 494.153 62.1818V64.5909H466.403V59.5H487.494C487.494 57.7121 487.131 56.1288 486.403 54.75C485.676 53.3561 484.653 52.2576 483.335 51.4545C482.032 50.6515 480.502 50.25 478.744 50.25C476.835 50.25 475.169 50.7197 473.744 51.6591C472.335 52.5833 471.244 53.7955 470.472 55.2955C469.714 56.7803 469.335 58.3939 469.335 60.1364V64.1136C469.335 66.447 469.744 68.4318 470.562 70.0682C471.396 71.7045 472.555 72.9545 474.04 73.8182C475.525 74.6667 477.259 75.0909 479.244 75.0909C480.532 75.0909 481.706 74.9091 482.767 74.5455C483.828 74.1667 484.744 73.6061 485.517 72.8636C486.29 72.1212 486.881 71.2045 487.29 70.1136L493.722 71.2727C493.206 73.1667 492.282 74.8258 490.949 76.25C489.631 77.6591 487.972 78.7576 485.972 79.5455C483.987 80.3182 481.722 80.7045 479.176 80.7045ZM511.852 80.7727C509.64 80.7727 507.64 80.3636 505.852 79.5455C504.064 78.7121 502.648 77.5076 501.602 75.9318C500.572 74.3561 500.057 72.4242 500.057 70.1364C500.057 68.1667 500.436 66.5455 501.193 65.2727C501.951 64 502.973 62.9924 504.261 62.25C505.549 61.5076 506.989 60.947 508.58 60.5682C510.17 60.1894 511.792 59.9015 513.443 59.7045C515.534 59.4621 517.231 59.2652 518.534 59.1136C519.837 58.947 520.784 58.6818 521.375 58.3182C521.966 57.9545 522.261 57.3636 522.261 56.5455V56.3864C522.261 54.4015 521.701 52.8636 520.58 51.7727C519.473 50.6818 517.822 50.1364 515.625 50.1364C513.337 50.1364 511.534 50.6439 510.216 51.6591C508.913 52.6591 508.011 53.7727 507.511 55L501.125 53.5455C501.883 51.4242 502.989 49.7121 504.443 48.4091C505.913 47.0909 507.602 46.1364 509.511 45.5455C511.42 44.9394 513.428 44.6364 515.534 44.6364C516.928 44.6364 518.405 44.803 519.966 45.1364C521.542 45.4545 523.011 46.0455 524.375 46.9091C525.754 47.7727 526.883 49.0076 527.761 50.6136C528.64 52.2045 529.08 54.2727 529.08 56.8182V80H522.443V75.2273H522.17C521.731 76.1061 521.072 76.9697 520.193 77.8182C519.314 78.6667 518.186 79.3712 516.807 79.9318C515.428 80.4924 513.777 80.7727 511.852 80.7727ZM513.33 75.3182C515.208 75.3182 516.814 74.947 518.148 74.2045C519.496 73.4621 520.519 72.4924 521.216 71.2955C521.928 70.0833 522.284 68.7879 522.284 67.4091V62.9091C522.042 63.1515 521.572 63.3788 520.875 63.5909C520.193 63.7879 519.413 63.9621 518.534 64.1136C517.655 64.25 516.799 64.3788 515.966 64.5C515.133 64.6061 514.436 64.697 513.875 64.7727C512.557 64.9394 511.352 65.2197 510.261 65.6136C509.186 66.0076 508.322 66.5758 507.67 67.3182C507.034 68.0455 506.716 69.0152 506.716 70.2273C506.716 71.9091 507.337 73.1818 508.58 74.0455C509.822 74.8939 511.405 75.3182 513.33 75.3182ZM538.131 80V45.0909H544.653V50.7727H545.085C545.813 48.8485 547.002 47.3485 548.653 46.2727C550.305 45.1818 552.282 44.6364 554.585 44.6364C556.919 44.6364 558.873 45.1818 560.449 46.2727C562.04 47.3636 563.214 48.8636 563.972 50.7727H564.335C565.169 48.9091 566.494 47.4242 568.312 46.3182C570.131 45.197 572.297 44.6364 574.812 44.6364C577.979 44.6364 580.562 45.6288 582.562 47.6136C584.578 49.5985 585.585 52.5909 585.585 56.5909V80H578.79V57.2273C578.79 54.8636 578.146 53.1515 576.858 52.0909C575.57 51.0303 574.032 50.5 572.244 50.5C570.032 50.5 568.312 51.1818 567.085 52.5455C565.858 53.8939 565.244 55.6288 565.244 57.75V80H558.472V56.7955C558.472 54.9015 557.881 53.3788 556.699 52.2273C555.517 51.0758 553.979 50.5 552.085 50.5C550.797 50.5 549.608 50.8409 548.517 51.5227C547.441 52.1894 546.57 53.1212 545.903 54.3182C545.252 55.5152 544.926 56.9015 544.926 58.4773V80H538.131Z" fill="#FF5427"/>
<path d="M11.3636 33.4545V80H4.56818V33.4545H11.3636ZM20.5057 80V45.0909H27.3011V80H20.5057ZM23.9375 39.7045C22.7557 39.7045 21.7405 39.3106 20.892 38.5227C20.0587 37.7197 19.642 36.7651 19.642 35.6591C19.642 34.5379 20.0587 33.5833 20.892 32.7955C21.7405 31.9924 22.7557 31.5909 23.9375 31.5909C25.1193 31.5909 26.1269 31.9924 26.9602 32.7955C27.8087 33.5833 28.233 34.5379 28.233 35.6591C28.233 36.7651 27.8087 37.7197 26.9602 38.5227C26.1269 39.3106 25.1193 39.7045 23.9375 39.7045ZM43.2386 59.2727V80H36.4432V45.0909H42.9659V50.7727H43.3977C44.2008 48.9242 45.4583 47.4394 47.1705 46.3182C48.8977 45.197 51.072 44.6364 53.6932 44.6364C56.072 44.6364 58.1553 45.1364 59.9432 46.1364C61.7311 47.1212 63.1174 48.5909 64.1023 50.5455C65.0871 52.5 65.5795 54.9167 65.5795 57.7955V80H58.7841V58.6136C58.7841 56.0833 58.125 54.1061 56.8068 52.6818C55.4886 51.2424 53.678 50.5227 51.375 50.5227C49.7992 50.5227 48.3977 50.8636 47.1705 51.5455C45.9583 52.2273 44.9962 53.2273 44.2841 54.5455C43.5871 55.8485 43.2386 57.4242 43.2386 59.2727ZM80.9432 68.1591L80.8977 59.8636H82.0795L95.9886 45.0909H104.125L88.2614 61.9091H87.1932L80.9432 68.1591ZM74.6932 80V33.4545H81.4886V80H74.6932ZM96.7386 80L84.2386 63.4091L88.9205 58.6591L105.08 80H96.7386ZM128.511 57.3864V63.2727H107.875V57.3864H128.511ZM138.114 80V33.4545H144.909V50.75H145.318C145.712 50.0227 146.28 49.1818 147.023 48.2273C147.765 47.2727 148.795 46.4394 150.114 45.7273C151.432 45 153.174 44.6364 155.341 44.6364C158.159 44.6364 160.674 45.3485 162.886 46.7727C165.098 48.197 166.833 50.25 168.091 52.9318C169.364 55.6136 170 58.8409 170 62.6136C170 66.3864 169.371 69.6212 168.114 72.3182C166.856 75 165.129 77.0682 162.932 78.5227C160.735 79.9621 158.227 80.6818 155.409 80.6818C153.288 80.6818 151.553 80.3258 150.205 79.6136C148.871 78.9015 147.826 78.0682 147.068 77.1136C146.311 76.1591 145.727 75.3106 145.318 74.5682H144.75V80H138.114ZM144.773 62.5455C144.773 65 145.129 67.1515 145.841 69C146.553 70.8485 147.583 72.2955 148.932 73.3409C150.28 74.3712 151.932 74.8864 153.886 74.8864C155.917 74.8864 157.614 74.3485 158.977 73.2727C160.341 72.1818 161.371 70.7045 162.068 68.8409C162.78 66.9773 163.136 64.8788 163.136 62.5455C163.136 60.2424 162.788 58.1742 162.091 56.3409C161.409 54.5076 160.379 53.0606 159 52C157.636 50.9394 155.932 50.4091 153.886 50.4091C151.917 50.4091 150.25 50.9167 148.886 51.9318C147.538 52.947 146.515 54.3636 145.818 56.1818C145.121 58 144.773 60.1212 144.773 62.5455ZM199.744 65.5227V45.0909H206.562V80H199.881V73.9545H199.517C198.714 75.8182 197.426 77.3712 195.653 78.6136C193.896 79.8409 191.706 80.4545 189.085 80.4545C186.843 80.4545 184.858 79.9621 183.131 78.9773C181.419 77.9773 180.07 76.5 179.085 74.5455C178.116 72.5909 177.631 70.1742 177.631 67.2955V45.0909H184.426V66.4773C184.426 68.8561 185.085 70.75 186.403 72.1591C187.722 73.5682 189.434 74.2727 191.54 74.2727C192.813 74.2727 194.078 73.9545 195.335 73.3182C196.608 72.6818 197.661 71.7197 198.494 70.4318C199.343 69.1439 199.759 67.5076 199.744 65.5227ZM215.693 80V45.0909H222.489V80H215.693ZM219.125 39.7045C217.943 39.7045 216.928 39.3106 216.08 38.5227C215.246 37.7197 214.83 36.7651 214.83 35.6591C214.83 34.5379 215.246 33.5833 216.08 32.7955C216.928 31.9924 217.943 31.5909 219.125 31.5909C220.307 31.5909 221.314 31.9924 222.148 32.7955C222.996 33.5833 223.42 34.5379 223.42 35.6591C223.42 36.7651 222.996 37.7197 222.148 38.5227C221.314 39.3106 220.307 39.7045 219.125 39.7045ZM238.426 33.4545V80H231.631V33.4545H238.426ZM260.636 80.6818C257.818 80.6818 255.303 79.9621 253.091 78.5227C250.894 77.0682 249.167 75 247.909 72.3182C246.667 69.6212 246.045 66.3864 246.045 62.6136C246.045 58.8409 246.674 55.6136 247.932 52.9318C249.205 50.25 250.947 48.197 253.159 46.7727C255.371 45.3485 257.879 44.6364 260.682 44.6364C262.848 44.6364 264.591 45 265.909 45.7273C267.242 46.4394 268.273 47.2727 269 48.2273C269.742 49.1818 270.318 50.0227 270.727 50.75H271.136V33.4545H277.932V80H271.295V74.5682H270.727C270.318 75.3106 269.727 76.1591 268.955 77.1136C268.197 78.0682 267.152 78.9015 265.818 79.6136C264.485 80.3258 262.758 80.6818 260.636 80.6818ZM262.136 74.8864C264.091 74.8864 265.742 74.3712 267.091 73.3409C268.455 72.2955 269.485 70.8485 270.182 69C270.894 67.1515 271.25 65 271.25 62.5455C271.25 60.1212 270.902 58 270.205 56.1818C269.508 54.3636 268.485 52.947 267.136 51.9318C265.788 50.9167 264.121 50.4091 262.136 50.4091C260.091 50.4091 258.386 50.9394 257.023 52C255.659 53.0606 254.629 54.5076 253.932 56.3409C253.25 58.1742 252.909 60.2424 252.909 62.5455C252.909 64.8788 253.258 66.9773 253.955 68.8409C254.652 70.7045 255.682 72.1818 257.045 73.2727C258.424 74.3485 260.121 74.8864 262.136 74.8864ZM287.631 80V45.0909H294.426V80H287.631ZM291.062 39.7045C289.881 39.7045 288.866 39.3106 288.017 38.5227C287.184 37.7197 286.767 36.7651 286.767 35.6591C286.767 34.5379 287.184 33.5833 288.017 32.7955C288.866 31.9924 289.881 31.5909 291.062 31.5909C292.244 31.5909 293.252 31.9924 294.085 32.7955C294.934 33.5833 295.358 34.5379 295.358 35.6591C295.358 36.7651 294.934 37.7197 294.085 38.5227C293.252 39.3106 292.244 39.7045 291.062 39.7045ZM310.364 59.2727V80H303.568V45.0909H310.091V50.7727H310.523C311.326 48.9242 312.583 47.4394 314.295 46.3182C316.023 45.197 318.197 44.6364 320.818 44.6364C323.197 44.6364 325.28 45.1364 327.068 46.1364C328.856 47.1212 330.242 48.5909 331.227 50.5455C332.212 52.5 332.705 54.9167 332.705 57.7955V80H325.909V58.6136C325.909 56.0833 325.25 54.1061 323.932 52.6818C322.614 51.2424 320.803 50.5227 318.5 50.5227C316.924 50.5227 315.523 50.8636 314.295 51.5455C313.083 52.2273 312.121 53.2273 311.409 54.5455C310.712 55.8485 310.364 57.4242 310.364 59.2727ZM356.455 93.8182C353.682 93.8182 351.295 93.4545 349.295 92.7273C347.311 92 345.689 91.0379 344.432 89.8409C343.174 88.6439 342.235 87.3333 341.614 85.9091L347.455 83.5C347.864 84.1667 348.409 84.8712 349.091 85.6136C349.788 86.3712 350.727 87.0152 351.909 87.5455C353.106 88.0758 354.644 88.3409 356.523 88.3409C359.098 88.3409 361.227 87.7121 362.909 86.4545C364.591 85.2121 365.432 83.2273 365.432 80.5V73.6364H365C364.591 74.3788 364 75.2045 363.227 76.1136C362.47 77.0227 361.424 77.8106 360.091 78.4773C358.758 79.1439 357.023 79.4773 354.886 79.4773C352.129 79.4773 349.644 78.8333 347.432 77.5455C345.235 76.2424 343.492 74.3258 342.205 71.7955C340.932 69.25 340.295 66.1212 340.295 62.4091C340.295 58.697 340.924 55.5152 342.182 52.8636C343.455 50.2121 345.197 48.1818 347.409 46.7727C349.621 45.3485 352.129 44.6364 354.932 44.6364C357.098 44.6364 358.848 45 360.182 45.7273C361.515 46.4394 362.553 47.2727 363.295 48.2273C364.053 49.1818 364.636 50.0227 365.045 50.75H365.545V45.0909H372.205V80.7727C372.205 83.7727 371.508 86.2348 370.114 88.1591C368.72 90.0833 366.833 91.5076 364.455 92.4318C362.091 93.3561 359.424 93.8182 356.455 93.8182ZM356.386 73.8409C358.341 73.8409 359.992 73.3864 361.341 72.4773C362.705 71.553 363.735 70.2348 364.432 68.5227C365.144 66.7955 365.5 64.7273 365.5 62.3182C365.5 59.9697 365.152 57.9015 364.455 56.1136C363.758 54.3258 362.735 52.9318 361.386 51.9318C360.038 50.9167 358.371 50.4091 356.386 50.4091C354.341 50.4091 352.636 50.9394 351.273 52C349.909 53.0455 348.879 54.4697 348.182 56.2727C347.5 58.0758 347.159 60.0909 347.159 62.3182C347.159 64.6061 347.508 66.6136 348.205 68.3409C348.902 70.0682 349.932 71.4167 351.295 72.3864C352.674 73.3561 354.371 73.8409 356.386 73.8409Z" fill="black"/>
<path d="M578.352 17.5135H578.381L578.411 17.5128C589.427 17.2548 600.151 20.9033 608.571 27.7571C616.981 34.603 622.512 44.172 624.151 54.6623C624.937 60.6564 624.392 66.7446 622.553 72.5206C620.71 78.3061 617.609 83.6481 613.454 88.1858C609.299 92.7238 604.185 96.3523 598.453 98.8229C592.721 101.294 586.507 102.548 580.228 102.499L580.218 102.499H580.209H564.736C563.323 102.499 561.982 101.954 561.006 101.007C560.032 100.063 559.5 98.7999 559.5 97.4998C559.5 96.1996 560.032 94.9363 561.006 93.9925C561.982 93.046 563.323 92.501 564.736 92.501H580.204C584.856 92.5196 589.462 91.5952 593.728 89.785C597.996 87.974 601.831 85.3152 604.985 81.9751C608.14 78.6347 610.543 74.6867 612.035 70.3829C613.528 66.0789 614.076 61.5174 613.642 56.9929L613.639 56.9566L613.634 56.9203C612.594 48.6282 608.403 41.028 601.904 35.5966C595.416 30.1739 587.09 27.298 578.552 27.511H564.736C563.323 27.511 561.982 26.966 561.006 26.0196C560.032 25.0757 559.5 23.8124 559.5 22.5122C559.5 21.1816 560.029 20.0154 561.084 19.1384C562.167 18.2376 563.973 17.5135 566.67 17.5135H578.352Z" fill="#FF5427" stroke="white" stroke-width="5"/>
<path d="M431.648 102.487C431.629 102.487 431.609 102.487 431.589 102.487C420.573 102.745 409.849 99.0966 401.429 92.2429C393.019 85.397 387.488 75.828 385.849 65.3377C385.063 59.3436 385.608 53.2554 387.447 47.4794C389.29 41.6939 392.391 36.3518 396.546 31.8142C400.701 27.2762 405.815 23.6477 411.547 21.1771C417.279 18.7065 423.493 17.4523 429.772 17.5014L429.791 17.5015L445.264 17.5015C446.677 17.5015 448.018 18.0464 448.994 18.9929C449.968 19.9368 450.5 21.2001 450.5 22.5002C450.5 23.8004 449.968 25.0637 448.994 26.0075C448.018 26.954 446.677 27.499 445.264 27.499L429.796 27.499C425.144 27.4804 420.538 28.4048 416.272 30.215C412.004 32.026 408.169 34.6848 405.015 38.0249C401.86 41.3653 399.457 45.3132 397.965 49.6171C396.472 53.9211 395.924 58.4825 396.358 63.007C396.36 63.0313 396.363 63.0555 396.366 63.0797C397.406 71.3718 401.597 78.972 408.096 84.4034C414.584 89.8261 422.91 92.702 431.448 92.489L445.264 92.489C446.677 92.489 448.018 93.034 448.994 93.9804C449.968 94.9243 450.5 96.1876 450.5 97.4878C450.5 98.8184 449.971 99.9846 448.916 100.862C447.833 101.762 446.027 102.487 443.33 102.487L431.648 102.487Z" fill="#FF5427" stroke="white" stroke-width="5" stroke-linecap="round" stroke-linejoin="round"/>
<path d="M412.192 13.5152C413.731 13.7798 415.191 12.7561 415.454 11.2274L416.127 7.33306C416.22 6.61446 416.03 5.88756 415.597 5.3041C415.163 4.72065 414.52 4.32576 413.802 4.20186C413.083 4.07797 412.344 4.23466 411.74 4.63921C411.136 5.04377 410.712 5.66492 410.558 6.37298L409.885 10.2723C409.621 11.7985 410.653 13.2532 412.189 13.5173L412.192 13.5152ZM393.992 26.2762L394.07 26.2896C394.809 26.4166 395.567 26.2469 396.179 25.8179C396.791 25.3888 397.206 24.7355 397.333 24.0018C397.459 23.268 397.287 22.5139 396.855 21.9052C396.422 21.2966 395.764 20.8833 395.026 20.7564L394.942 20.742L394.948 20.7429L391.028 20.069C390.305 19.9756 389.573 20.1633 388.987 20.5931C388.4 21.0228 388.004 21.6614 387.88 22.3753C387.757 23.0893 387.915 23.8236 388.323 24.4248C388.731 25.026 389.357 25.4477 390.07 25.6018L390.075 25.6027L393.992 26.2762ZM398.599 14.9997C398.806 15.3176 399.075 15.5909 399.39 15.803C399.706 16.0151 400.061 16.1618 400.435 16.2341C400.809 16.3064 401.193 16.3029 401.566 16.2239C401.938 16.1448 402.29 15.9918 402.601 15.774C402.912 15.5562 403.175 15.2781 403.375 14.9565C403.575 14.6349 403.708 14.2763 403.765 13.9023C403.822 13.5283 403.802 13.1466 403.707 12.7802C403.612 12.4137 403.443 12.07 403.211 11.7698L403.209 11.7668L400.912 8.53612C400.706 8.21816 400.436 7.94491 400.121 7.73279C399.805 7.52066 399.45 7.37404 399.076 7.30172C398.702 7.2294 398.318 7.23287 397.946 7.31194C397.573 7.391 397.221 7.54402 396.91 7.7618C396.599 7.97959 396.336 8.25765 396.136 8.57929C395.936 8.90093 395.803 9.25951 395.746 9.6335C395.689 10.0075 395.709 10.3892 395.804 10.7556C395.9 11.1221 396.068 11.4658 396.3 11.766L396.302 11.7689L398.599 14.9997Z" fill="#FF5427"/>
<path d="M606.826 102.66C605.264 102.66 604 103.916 604 105.467L604 109.419C604.031 110.143 604.342 110.827 604.868 111.329C605.394 111.83 606.095 112.111 606.824 112.111C607.554 112.111 608.255 111.832 608.782 111.331C609.308 110.829 609.62 110.146 609.651 109.422L609.651 105.465C609.651 103.916 608.387 102.657 606.828 102.657L606.826 102.66ZM622.589 87.0001L622.51 87.0001C621.761 87.0001 621.042 87.2959 620.512 87.8224C619.982 88.3489 619.684 89.0629 619.684 89.8075C619.684 90.5521 619.982 91.2662 620.512 91.7927C621.042 92.3192 621.761 92.615 622.51 92.615L622.595 92.615L622.589 92.615L626.567 92.615C627.296 92.5845 627.984 92.2756 628.489 91.7527C628.994 91.2298 629.276 90.5333 629.276 89.8087C629.276 89.0842 628.995 88.3875 628.491 87.8641C627.986 87.3408 627.298 87.0312 626.569 87.0001L626.564 87.0001L622.589 87.0001ZM619.969 98.8936C619.711 98.6153 619.399 98.3917 619.052 98.2361C618.705 98.0805 618.33 97.9962 617.949 97.9883C617.568 97.9803 617.19 98.0489 616.837 98.1899C616.483 98.3309 616.162 98.5414 615.893 98.8087C615.624 99.076 615.411 99.3947 615.269 99.7455C615.127 100.096 615.057 100.472 615.065 100.85C615.072 101.229 615.156 101.601 615.313 101.946C615.469 102.291 615.693 102.602 615.973 102.858L615.976 102.861L618.789 105.655C619.047 105.934 619.358 106.157 619.705 106.313C620.052 106.469 620.428 106.553 620.808 106.561C621.189 106.569 621.567 106.5 621.921 106.359C622.274 106.218 622.595 106.008 622.864 105.74C623.134 105.473 623.346 105.154 623.488 104.804C623.631 104.453 623.7 104.077 623.693 103.699C623.685 103.32 623.601 102.948 623.445 102.603C623.288 102.258 623.064 101.947 622.784 101.691L622.781 101.688L619.969 98.8936Z" fill="#FF5427"/>
</svg>
