<svg width="36" height="33" viewBox="0 0 36 33" fill="none" xmlns="http://www.w3.org/2000/svg">
<mask id="path-1-outside-1_0_305" maskUnits="userSpaceOnUse" x="0" y="0" width="36" height="33" fill="black">
<rect fill="white" width="36" height="33"/>
<path d="M11.208 17.4965C11.1578 17.4117 11.0338 17.4161 10.9903 17.5045C10.9166 17.654 10.8485 17.7955 10.7859 17.9289C10.6956 18.1217 10.6048 18.32 10.5136 18.524C10.0601 19.499 9.65218 20.4903 9.2899 21.498C8.93452 22.4673 8.65741 23.4635 8.46121 24.4771L8.43926 24.6075C8.34891 25.197 8.28652 25.7864 8.2521 26.3759C8.21842 26.9965 8.28511 27.6185 8.44959 28.2179L8.44055 28.1766C8.52445 28.6258 8.7426 29.0143 9.0511 29.3086L9.05239 29.3099C9.35315 29.568 9.74426 29.7281 10.1728 29.7346H10.1741C10.3945 29.758 10.6172 29.7458 10.8337 29.6984L10.8208 29.701L11.4326 29.5655C12.0096 29.3977 12.5104 29.1769 12.9764 28.902L12.9454 28.9188C13.4101 28.6468 13.8692 28.3521 14.3227 28.0346C14.4259 27.9713 14.5364 27.921 14.6519 27.8848L14.6622 27.8823C14.7865 27.8479 14.9186 27.8542 15.0391 27.9003L15.0352 27.899C15.1483 27.9366 15.2495 28.0031 15.329 28.0918C15.4085 28.1806 15.4634 28.2886 15.4883 28.405L15.4896 28.4089C15.5203 28.5209 15.5157 28.6396 15.4764 28.7489C15.4374 28.8576 15.3659 28.9517 15.2717 29.0184C15.2707 29.0191 15.2697 29.0199 15.2689 29.0207C14.608 29.5229 13.8632 29.9966 13.0784 30.4071L12.9906 30.4484C12.229 30.8434 11.3306 31.0809 10.3767 31.0938H10.3729C9.66658 31.1362 8.96726 30.9337 8.39279 30.5207L8.40183 30.5271C7.84595 30.1092 7.43258 29.53 7.21817 28.8684L7.21171 28.8452C7.01115 28.304 6.8966 27.7348 6.87223 27.1581V27.1465C6.848 26.5616 6.87218 25.9758 6.94452 25.3949L6.93936 25.4465C7.1575 23.6368 7.58217 21.9898 8.19401 20.4369L8.14625 20.5738C8.77727 18.9317 9.51281 17.3317 10.3484 15.7836L10.2373 16.0082C10.2997 15.8934 10.3346 15.7657 10.3393 15.6352V15.6339C10.3372 15.5035 10.3132 15.3743 10.2683 15.2518L10.2709 15.2596C10.067 14.6933 9.8742 14.1267 9.69263 13.5596L9.1887 11.9832C9.16248 11.9011 9.15489 11.8121 9.11655 11.735C9.09763 11.6969 9.07123 11.6631 9.03895 11.6354C9.03759 11.6343 9.03608 11.6333 9.03447 11.6326C8.9551 11.5962 8.86506 11.5904 8.78168 11.6164C8.78152 11.6165 8.78143 11.6162 8.78158 11.6162C8.78172 11.6161 8.78164 11.6159 8.78149 11.6159C8.0117 11.7974 7.25265 12.0069 6.50436 12.2443C5.73966 12.4861 5.00313 12.8094 4.30742 13.2085L4.36163 13.1801C4.08963 13.3384 3.83027 13.5175 3.58586 13.7158L3.59748 13.7067C3.35461 13.9043 3.12197 14.1141 2.90045 14.3353C2.58735 14.6407 2.39447 15.0484 2.35702 15.4842V15.5397C2.35702 15.985 2.51063 16.3955 2.76879 16.7182L2.76621 16.7143C3.00888 17.0925 3.30189 17.4126 3.64137 17.6772L3.6504 17.6837C3.99031 17.9444 4.34141 18.1879 4.70369 18.4143C4.83966 18.4822 4.96444 18.5502 5.07803 18.6182L5.41751 18.8222C5.57955 18.9168 5.70332 19.0652 5.76731 19.2417L5.7686 19.2468C5.79712 19.3282 5.80717 19.4149 5.79802 19.5006C5.78886 19.5864 5.76074 19.669 5.71568 19.7425L5.71697 19.7399C5.679 19.8229 5.62305 19.8964 5.55317 19.9551C5.4833 20.0138 5.40125 20.0563 5.31295 20.0794L5.30908 20.0807C5.12387 20.1258 4.92854 20.1009 4.76049 20.011L4.76436 20.0136C4.23452 19.7594 3.72827 19.4588 3.25155 19.1152L3.28124 19.1358C2.81219 18.8008 2.38109 18.4156 1.9956 17.987L1.98915 17.9793C1.75766 17.7088 1.55679 17.4136 1.39022 17.0989L1.37731 17.0731C1.21758 16.7644 1.10407 16.4339 1.04041 16.0921L1.03654 16.0702C0.966746 15.6341 0.997205 15.1878 1.1256 14.7652L1.12044 14.7858C1.25067 14.3653 1.45432 13.9711 1.72195 13.6215L1.7155 13.6306C1.99302 13.2627 2.30668 12.9439 2.65649 12.6702L2.66811 12.6612C3.00501 12.3953 3.38321 12.1526 3.78465 11.9487L3.82337 11.9306C4.50472 11.5623 5.21641 11.2531 5.9506 11.0064L6.05 10.9767C6.80554 10.7271 7.58174 10.512 8.37859 10.3313C8.42894 10.3132 8.49089 10.2964 8.55543 10.2822L8.56576 10.281C8.64063 10.2655 8.70258 10.2474 8.76325 10.2267C8.75704 10.2288 8.75039 10.2251 8.74897 10.2187C8.70455 10.0187 8.66757 9.81873 8.63804 9.61877C8.60793 9.41483 8.57953 9.21088 8.55285 9.00693C8.41782 8.17812 8.33333 7.34186 8.29986 6.50279L8.29856 6.45761C8.26363 5.58904 8.366 4.72041 8.6019 3.88376L8.5877 3.94184C8.66128 3.57397 8.76712 3.24998 8.90524 2.94406L8.89362 2.97246C9.03433 2.65713 9.21903 2.36335 9.44221 2.09988L9.43834 2.10504C9.83186 1.6269 10.3619 1.28016 10.9576 1.11113L10.9796 1.10596C11.5978 0.957203 12.2433 0.96519 12.8577 1.1292L12.8306 1.12274C13.4807 1.27768 14.1021 1.5352 14.6712 1.8856L14.6441 1.87011C15.265 2.25219 15.7916 2.62265 16.2951 3.02022L16.2589 2.99311C16.388 3.11315 16.4719 3.28096 16.4848 3.46683V3.46941L16.4861 3.51072C16.4862 3.59227 16.4695 3.67296 16.4371 3.74779C16.3725 3.89674 16.2544 4.02267 16.1134 4.10322C16.0408 4.14476 15.9601 4.17221 15.8755 4.18322H15.8717C15.6953 4.2043 15.5177 4.15515 15.3773 4.0464C15.3775 4.04655 15.3773 4.0468 15.3771 4.04667C15.1057 3.86544 14.8455 3.68464 14.5964 3.50426C14.3585 3.32981 14.1121 3.1674 13.858 3.01763L13.8154 2.9944C13.5312 2.81808 13.2287 2.6731 12.9132 2.56198L12.8796 2.55166C12.5447 2.43736 12.1931 2.37977 11.8392 2.38127H11.807H11.8082H11.7902C11.5075 2.38127 11.2403 2.45097 11.0054 2.57231L11.0144 2.56844C10.7727 2.6987 10.569 2.88952 10.4232 3.12219L10.4193 3.12864C10.1996 3.41013 10.0393 3.73335 9.9482 4.07867L9.94433 4.09674C9.85498 4.43486 9.78814 4.77854 9.74426 5.12551L9.74039 5.1681C9.65003 5.95698 9.6457 6.75335 9.72748 7.54317L9.72361 7.4967C9.81396 8.38477 9.94046 9.16699 10.107 9.93502L10.0832 9.80317C10.083 9.80193 10.0812 9.80209 10.0812 9.80336C10.0813 9.83043 10.0875 9.85714 10.0993 9.88149C10.1112 9.90584 10.1284 9.92723 10.1496 9.94405C10.1935 9.97632 10.249 9.99568 10.3096 9.99568H10.32C10.9542 9.9277 11.5776 9.86531 12.1903 9.80852C12.803 9.75172 13.4149 9.70052 14.0258 9.65491C14.1461 9.63731 14.2631 9.60208 14.3731 9.55036C14.3722 9.55065 14.3716 9.5494 14.3724 9.54894C14.4747 9.49082 14.5639 9.41213 14.6343 9.31781C14.6348 9.31709 14.6353 9.31632 14.6357 9.31551C14.6362 9.3146 14.6367 9.31374 14.6373 9.31294C15.4276 8.2976 16.2705 7.32427 17.1625 6.39694L17.1521 6.40856C18.0252 5.5026 18.971 4.66982 19.9803 3.91861L20.0409 3.87472C20.5805 3.4622 21.1429 3.08038 21.7254 2.73108L21.8093 2.68461C22.409 2.32712 23.0513 2.04653 23.721 1.84946L23.7817 1.83397C24.2014 1.69827 24.6371 1.61841 25.0776 1.59647H25.0905C25.5558 1.57495 26.0206 1.64694 26.4575 1.80816L26.433 1.80041C26.9545 1.96434 27.3933 2.26639 27.7212 2.66266L27.7251 2.66783C28.04 3.06668 28.2853 3.53782 28.4324 4.05027L28.4389 4.07867C28.6118 4.59628 28.7112 5.19263 28.7112 5.81092V5.82641C28.7112 6.43179 28.6738 7.02943 28.6028 7.61545L28.6093 7.54575C28.5869 7.70409 28.5641 7.85511 28.5408 7.99882C28.5125 8.17695 28.4763 8.32927 28.4324 8.479L28.4389 8.45189C28.4303 8.53668 28.4031 8.61854 28.3594 8.6917C28.3157 8.76486 28.2565 8.82752 28.1859 8.87527C28.1842 8.87613 28.1825 8.87712 28.1809 8.87821C28.0379 8.97737 27.8621 9.01766 27.6902 8.99076C27.6898 8.9907 27.6898 8.99015 27.6902 8.99015C27.5179 8.97209 27.3594 8.88731 27.2488 8.75394L27.2475 8.75265C27.1901 8.68133 27.1483 8.59873 27.125 8.51021C27.102 8.42295 27.0973 8.33186 27.1113 8.24273C27.1114 8.24235 27.1119 8.2424 27.1119 8.24278C27.1343 7.97085 27.1683 7.69333 27.2139 7.41022C27.2565 7.1598 27.281 6.87195 27.2823 6.57765C27.3054 6.23597 27.305 5.8931 27.281 5.55147L27.2823 5.5747C27.2579 5.22075 27.2096 4.86886 27.1378 4.52141L27.1468 4.57304C27.1091 4.29441 27.0112 4.02734 26.8598 3.79038C26.7084 3.55343 26.5073 3.35228 26.2703 3.20093L26.2626 3.19576C25.7312 2.92571 25.1157 2.87249 24.5458 3.04732L24.5626 3.04345C24.0429 3.15367 23.5396 3.33069 23.0653 3.57009L23.1001 3.55331C22.6466 3.77963 22.1936 4.02876 21.7409 4.30069C20.8569 4.89028 20.0236 5.55261 19.2497 6.28077L19.2587 6.27173C18.4886 6.99716 17.7519 7.75658 17.0489 8.54999C16.9129 8.68596 16.777 8.83311 16.641 8.99144C16.5063 9.14825 16.3827 9.29408 16.27 9.42894C16.2678 9.4315 16.2667 9.43472 16.2667 9.43806C16.2668 9.45448 16.261 9.47038 16.2503 9.48278C16.25 9.48309 16.2498 9.48341 16.2496 9.48376C16.2348 9.50894 16.229 9.53834 16.2329 9.56724C16.2329 9.56735 16.2331 9.56734 16.2331 9.56723C16.2331 9.56718 16.2331 9.56714 16.2332 9.56714H16.6074C18.5385 9.59167 20.4114 9.7272 22.2521 9.96729L22.012 9.94147C24.036 10.2035 25.8418 10.5959 27.5882 11.1264L27.3482 11.0632C28.3317 11.3381 29.1385 11.6221 29.9246 11.95L29.78 11.8957C30.6862 12.2688 31.4529 12.6625 32.1809 13.1104L32.1086 13.0691C32.5268 13.3414 32.887 13.6099 33.2303 13.8991L33.2135 13.8849C33.5698 14.1843 33.886 14.5083 34.1726 14.8581L34.1829 14.871C34.6915 15.4764 35 16.2638 35 17.1235L34.9987 17.2383V17.2332C34.9311 18.0851 34.5432 18.8798 33.9131 19.4572L33.9106 19.4598C33.4751 19.8952 32.9832 20.2703 32.4481 20.5751L32.4145 20.5931C31.8856 20.8912 31.334 21.1472 30.7649 21.3586L30.681 21.3857C30.5218 21.4318 30.3513 21.4189 30.2008 21.3495L30.2047 21.3508C30.1259 21.316 30.0551 21.2652 29.9969 21.2017C29.9387 21.1381 29.8943 21.0632 29.8665 20.9817L29.8652 20.9778C29.8306 20.8995 29.8128 20.8148 29.813 20.7292C29.8132 20.6436 29.8315 20.5589 29.8665 20.4808L29.8652 20.4847C29.9354 20.3136 30.0671 20.175 30.2344 20.0962C30.237 20.0953 30.2395 20.0943 30.2419 20.0931C30.5127 19.9578 30.789 19.828 31.0708 19.7038C31.3544 19.5794 31.6276 19.4326 31.8879 19.2649L31.8647 19.2791C32.1035 19.1358 32.3087 18.99 32.5023 18.8299L32.4933 18.8364C32.686 18.678 32.8749 18.5081 33.0599 18.3265C33.3813 18.0167 33.5943 17.5959 33.6369 17.1273V17.1093C33.6369 16.6394 33.4717 16.207 33.1955 15.8688L33.198 15.8727C32.974 15.5581 32.7098 15.2743 32.412 15.0285L32.4042 15.0221C32.1095 14.7804 31.7981 14.56 31.4722 14.3625L31.4361 14.3418C30.6572 13.8388 29.8289 13.4167 28.9642 13.082L28.8687 13.0497C28.039 12.7253 27.1922 12.4461 26.3323 12.2133L26.1322 12.1668C25.1572 11.9173 24.1775 11.7021 23.1931 11.5214C22.238 11.3407 21.2729 11.2174 20.303 11.1522L20.2191 11.1471C19.4257 11.1015 18.6267 11.0636 17.8221 11.0335C17.0175 11.0034 16.2185 10.975 15.4251 10.9483H15.4122C15.31 10.9486 15.2087 10.9665 15.1127 11.0012L15.1191 10.9986C15.0302 11.0315 14.9575 11.0977 14.9165 11.1832L14.9152 11.1858L13.4682 13.3518C13.0309 14.0184 12.603 14.685 12.1846 15.3517C12.1111 15.4689 12.0032 15.5762 11.989 15.7139C11.989 15.7148 11.9889 15.7156 11.9887 15.7165C11.9755 15.7912 11.9813 15.868 12.0057 15.9398L12.0044 15.9359C12.4123 16.8653 12.8374 17.7831 13.2798 18.6892C13.7221 19.5953 14.2035 20.4847 14.7242 21.3573C15.2448 22.2299 15.7942 23.0796 16.3725 23.9066C16.9508 24.7336 17.5682 25.5322 18.2248 26.3023C18.8031 26.9723 19.3865 27.5815 19.9984 28.1611L20.01 28.1714C20.6102 28.7406 21.2711 29.2557 21.9797 29.7036L22.0326 29.7346C22.3399 29.9424 22.6922 30.136 23.0614 30.2961L23.104 30.3128C23.4487 30.4639 23.8488 30.5607 24.2683 30.5839H24.2773C24.6283 30.6151 24.9807 30.5423 25.2906 30.3748L25.2816 30.38C25.5759 30.2083 25.8134 29.9656 25.9735 29.6752L25.9786 29.6661C26.1477 29.3977 26.282 29.0853 26.3646 28.7536L26.3697 28.7316C26.4498 28.4055 26.5105 28.0749 26.5517 27.7416L26.5569 27.6951C26.6499 26.5738 26.6004 25.4453 26.4097 24.3364L26.4214 24.4152C26.2398 23.3387 26.013 22.2682 25.7411 21.2037C25.4236 20.116 25.0609 19.0511 24.653 18.009C24.2451 16.9669 23.8032 15.9351 23.3273 14.9136C23.2798 14.8361 23.2425 14.7528 23.2163 14.6658L23.2137 14.658C23.1802 14.5778 23.1743 14.4887 23.1969 14.4049C23.1978 14.4016 23.1982 14.3981 23.1982 14.3947C23.1982 14.2372 23.2628 14.0953 23.3686 13.9946C23.4769 13.8836 23.6191 13.8119 23.7726 13.7906H23.7738C23.7756 13.7906 23.7774 13.7905 23.7792 13.7902C23.9189 13.7691 24.0617 13.7933 24.1865 13.8594C24.1867 13.8595 24.1866 13.8598 24.1864 13.8597C24.1862 13.8596 24.1861 13.8599 24.1863 13.86C24.3237 13.9321 24.431 14.0507 24.489 14.1946L24.4903 14.1985C24.6487 14.5608 24.8186 14.9291 25.0002 15.3034C25.1818 15.6778 25.3517 16.0555 25.5101 16.4368C25.9859 17.5925 26.4166 18.7705 26.8021 19.971C27.1442 20.9881 27.4514 22.2234 27.6657 23.4923L27.6863 23.642C27.809 24.3842 27.9058 25.2903 27.9548 26.2107L27.9574 26.2778C28.0029 27.1853 27.9181 28.0947 27.7057 28.9782L27.7186 28.9136C27.673 29.0952 27.6162 29.2841 27.5482 29.4803C27.4781 29.684 27.3945 29.8828 27.2978 30.0753L27.3107 30.0469C27.01 30.7504 26.4872 31.3119 25.8328 31.6527L25.8147 31.6617C25.4029 31.8644 24.9189 31.9844 24.4077 31.9844C24.1224 31.9844 23.8462 31.947 23.5829 31.8786L23.6048 31.8837C22.9207 31.7417 22.314 31.5004 21.7655 31.1725L21.7926 31.188C21.2192 30.8483 20.669 30.471 20.1455 30.0585L20.1778 30.0831C19.238 29.3444 18.3682 28.5209 17.5794 27.6228L17.56 27.6009C16.7666 26.6947 16.0188 25.7546 15.3166 24.7805C14.5625 23.7271 13.8649 22.6344 13.2268 21.507L13.1287 21.3199C12.4601 20.1297 11.8427 18.9005 11.2764 17.632L11.208 17.4965ZM11.45 11.2063C10.9162 11.2629 10.5603 11.7999 10.7167 12.3134C10.9282 13.0078 11.866 13.146 12.2652 12.5398C12.6631 11.9357 12.1693 11.1302 11.45 11.2063ZM18.128 18.4556H18.1048C17.5626 18.4556 17.0708 18.2348 16.7171 17.8773C16.5391 17.7125 16.397 17.5126 16.2999 17.2903C16.2028 17.0679 16.1528 16.8278 16.1531 16.5852L16.1556 16.4781V16.4535C16.1556 15.9179 16.3777 15.4351 16.7339 15.0892C16.9108 14.9061 17.1228 14.7605 17.3572 14.6611C17.5917 14.5618 17.8437 14.5107 18.0983 14.5109H18.1293H18.128H18.1512C18.6934 14.5109 19.1852 14.7316 19.5388 15.0892C19.9054 15.4312 20.1339 15.9179 20.1339 16.4587V16.4845V16.4832V16.5078C20.1339 17.0473 19.9054 17.5339 19.5401 17.876L19.5388 17.8773C19.3573 18.0607 19.1412 18.2063 18.903 18.3056C18.6648 18.4049 18.4093 18.4558 18.1512 18.4556H18.1319H18.1332H18.128Z"/>
</mask>
<path d="M11.208 17.4965C11.1578 17.4117 11.0338 17.4161 10.9903 17.5045C10.9166 17.654 10.8485 17.7955 10.7859 17.9289C10.6956 18.1217 10.6048 18.32 10.5136 18.524C10.0601 19.499 9.65218 20.4903 9.2899 21.498C8.93452 22.4673 8.65741 23.4635 8.46121 24.4771L8.43926 24.6075C8.34891 25.197 8.28652 25.7864 8.2521 26.3759C8.21842 26.9965 8.28511 27.6185 8.44959 28.2179L8.44055 28.1766C8.52445 28.6258 8.7426 29.0143 9.0511 29.3086L9.05239 29.3099C9.35315 29.568 9.74426 29.7281 10.1728 29.7346H10.1741C10.3945 29.758 10.6172 29.7458 10.8337 29.6984L10.8208 29.701L11.4326 29.5655C12.0096 29.3977 12.5104 29.1769 12.9764 28.902L12.9454 28.9188C13.4101 28.6468 13.8692 28.3521 14.3227 28.0346C14.4259 27.9713 14.5364 27.921 14.6519 27.8848L14.6622 27.8823C14.7865 27.8479 14.9186 27.8542 15.0391 27.9003L15.0352 27.899C15.1483 27.9366 15.2495 28.0031 15.329 28.0918C15.4085 28.1806 15.4634 28.2886 15.4883 28.405L15.4896 28.4089C15.5203 28.5209 15.5157 28.6396 15.4764 28.7489C15.4374 28.8576 15.3659 28.9517 15.2717 29.0184C15.2707 29.0191 15.2697 29.0199 15.2689 29.0207C14.608 29.5229 13.8632 29.9966 13.0784 30.4071L12.9906 30.4484C12.229 30.8434 11.3306 31.0809 10.3767 31.0938H10.3729C9.66658 31.1362 8.96726 30.9337 8.39279 30.5207L8.40183 30.5271C7.84595 30.1092 7.43258 29.53 7.21817 28.8684L7.21171 28.8452C7.01115 28.304 6.8966 27.7348 6.87223 27.1581V27.1465C6.848 26.5616 6.87218 25.9758 6.94452 25.3949L6.93936 25.4465C7.1575 23.6368 7.58217 21.9898 8.19401 20.4369L8.14625 20.5738C8.77727 18.9317 9.51281 17.3317 10.3484 15.7836L10.2373 16.0082C10.2997 15.8934 10.3346 15.7657 10.3393 15.6352V15.6339C10.3372 15.5035 10.3132 15.3743 10.2683 15.2518L10.2709 15.2596C10.067 14.6933 9.8742 14.1267 9.69263 13.5596L9.1887 11.9832C9.16248 11.9011 9.15489 11.8121 9.11655 11.735C9.09763 11.6969 9.07123 11.6631 9.03895 11.6354C9.03759 11.6343 9.03608 11.6333 9.03447 11.6326C8.9551 11.5962 8.86506 11.5904 8.78168 11.6164C8.78152 11.6165 8.78143 11.6162 8.78158 11.6162C8.78172 11.6161 8.78164 11.6159 8.78149 11.6159C8.0117 11.7974 7.25265 12.0069 6.50436 12.2443C5.73966 12.4861 5.00313 12.8094 4.30742 13.2085L4.36163 13.1801C4.08963 13.3384 3.83027 13.5175 3.58586 13.7158L3.59748 13.7067C3.35461 13.9043 3.12197 14.1141 2.90045 14.3353C2.58735 14.6407 2.39447 15.0484 2.35702 15.4842V15.5397C2.35702 15.985 2.51063 16.3955 2.76879 16.7182L2.76621 16.7143C3.00888 17.0925 3.30189 17.4126 3.64137 17.6772L3.6504 17.6837C3.99031 17.9444 4.34141 18.1879 4.70369 18.4143C4.83966 18.4822 4.96444 18.5502 5.07803 18.6182L5.41751 18.8222C5.57955 18.9168 5.70332 19.0652 5.76731 19.2417L5.7686 19.2468C5.79712 19.3282 5.80717 19.4149 5.79802 19.5006C5.78886 19.5864 5.76074 19.669 5.71568 19.7425L5.71697 19.7399C5.679 19.8229 5.62305 19.8964 5.55317 19.9551C5.4833 20.0138 5.40125 20.0563 5.31295 20.0794L5.30908 20.0807C5.12387 20.1258 4.92854 20.1009 4.76049 20.011L4.76436 20.0136C4.23452 19.7594 3.72827 19.4588 3.25155 19.1152L3.28124 19.1358C2.81219 18.8008 2.38109 18.4156 1.9956 17.987L1.98915 17.9793C1.75766 17.7088 1.55679 17.4136 1.39022 17.0989L1.37731 17.0731C1.21758 16.7644 1.10407 16.4339 1.04041 16.0921L1.03654 16.0702C0.966746 15.6341 0.997205 15.1878 1.1256 14.7652L1.12044 14.7858C1.25067 14.3653 1.45432 13.9711 1.72195 13.6215L1.7155 13.6306C1.99302 13.2627 2.30668 12.9439 2.65649 12.6702L2.66811 12.6612C3.00501 12.3953 3.38321 12.1526 3.78465 11.9487L3.82337 11.9306C4.50472 11.5623 5.21641 11.2531 5.9506 11.0064L6.05 10.9767C6.80554 10.7271 7.58174 10.512 8.37859 10.3313C8.42894 10.3132 8.49089 10.2964 8.55543 10.2822L8.56576 10.281C8.64063 10.2655 8.70258 10.2474 8.76325 10.2267C8.75704 10.2288 8.75039 10.2251 8.74897 10.2187C8.70455 10.0187 8.66757 9.81873 8.63804 9.61877C8.60793 9.41483 8.57953 9.21088 8.55285 9.00693C8.41782 8.17812 8.33333 7.34186 8.29986 6.50279L8.29856 6.45761C8.26363 5.58904 8.366 4.72041 8.6019 3.88376L8.5877 3.94184C8.66128 3.57397 8.76712 3.24998 8.90524 2.94406L8.89362 2.97246C9.03433 2.65713 9.21903 2.36335 9.44221 2.09988L9.43834 2.10504C9.83186 1.6269 10.3619 1.28016 10.9576 1.11113L10.9796 1.10596C11.5978 0.957203 12.2433 0.96519 12.8577 1.1292L12.8306 1.12274C13.4807 1.27768 14.1021 1.5352 14.6712 1.8856L14.6441 1.87011C15.265 2.25219 15.7916 2.62265 16.2951 3.02022L16.2589 2.99311C16.388 3.11315 16.4719 3.28096 16.4848 3.46683V3.46941L16.4861 3.51072C16.4862 3.59227 16.4695 3.67296 16.4371 3.74779C16.3725 3.89674 16.2544 4.02267 16.1134 4.10322C16.0408 4.14476 15.9601 4.17221 15.8755 4.18322H15.8717C15.6953 4.2043 15.5177 4.15515 15.3773 4.0464C15.3775 4.04655 15.3773 4.0468 15.3771 4.04667C15.1057 3.86544 14.8455 3.68464 14.5964 3.50426C14.3585 3.32981 14.1121 3.1674 13.858 3.01763L13.8154 2.9944C13.5312 2.81808 13.2287 2.6731 12.9132 2.56198L12.8796 2.55166C12.5447 2.43736 12.1931 2.37977 11.8392 2.38127H11.807H11.8082H11.7902C11.5075 2.38127 11.2403 2.45097 11.0054 2.57231L11.0144 2.56844C10.7727 2.6987 10.569 2.88952 10.4232 3.12219L10.4193 3.12864C10.1996 3.41013 10.0393 3.73335 9.9482 4.07867L9.94433 4.09674C9.85498 4.43486 9.78814 4.77854 9.74426 5.12551L9.74039 5.1681C9.65003 5.95698 9.6457 6.75335 9.72748 7.54317L9.72361 7.4967C9.81396 8.38477 9.94046 9.16699 10.107 9.93502L10.0832 9.80317C10.083 9.80193 10.0812 9.80209 10.0812 9.80336C10.0813 9.83043 10.0875 9.85714 10.0993 9.88149C10.1112 9.90584 10.1284 9.92723 10.1496 9.94405C10.1935 9.97632 10.249 9.99568 10.3096 9.99568H10.32C10.9542 9.9277 11.5776 9.86531 12.1903 9.80852C12.803 9.75172 13.4149 9.70052 14.0258 9.65491C14.1461 9.63731 14.2631 9.60208 14.3731 9.55036C14.3722 9.55065 14.3716 9.5494 14.3724 9.54894C14.4747 9.49082 14.5639 9.41213 14.6343 9.31781C14.6348 9.31709 14.6353 9.31632 14.6357 9.31551C14.6362 9.3146 14.6367 9.31374 14.6373 9.31294C15.4276 8.2976 16.2705 7.32427 17.1625 6.39694L17.1521 6.40856C18.0252 5.5026 18.971 4.66982 19.9803 3.91861L20.0409 3.87472C20.5805 3.4622 21.1429 3.08038 21.7254 2.73108L21.8093 2.68461C22.409 2.32712 23.0513 2.04653 23.721 1.84946L23.7817 1.83397C24.2014 1.69827 24.6371 1.61841 25.0776 1.59647H25.0905C25.5558 1.57495 26.0206 1.64694 26.4575 1.80816L26.433 1.80041C26.9545 1.96434 27.3933 2.26639 27.7212 2.66266L27.7251 2.66783C28.04 3.06668 28.2853 3.53782 28.4324 4.05027L28.4389 4.07867C28.6118 4.59628 28.7112 5.19263 28.7112 5.81092V5.82641C28.7112 6.43179 28.6738 7.02943 28.6028 7.61545L28.6093 7.54575C28.5869 7.70409 28.5641 7.85511 28.5408 7.99882C28.5125 8.17695 28.4763 8.32927 28.4324 8.479L28.4389 8.45189C28.4303 8.53668 28.4031 8.61854 28.3594 8.6917C28.3157 8.76486 28.2565 8.82752 28.1859 8.87527C28.1842 8.87613 28.1825 8.87712 28.1809 8.87821C28.0379 8.97737 27.8621 9.01766 27.6902 8.99076C27.6898 8.9907 27.6898 8.99015 27.6902 8.99015C27.5179 8.97209 27.3594 8.88731 27.2488 8.75394L27.2475 8.75265C27.1901 8.68133 27.1483 8.59873 27.125 8.51021C27.102 8.42295 27.0973 8.33186 27.1113 8.24273C27.1114 8.24235 27.1119 8.2424 27.1119 8.24278C27.1343 7.97085 27.1683 7.69333 27.2139 7.41022C27.2565 7.1598 27.281 6.87195 27.2823 6.57765C27.3054 6.23597 27.305 5.8931 27.281 5.55147L27.2823 5.5747C27.2579 5.22075 27.2096 4.86886 27.1378 4.52141L27.1468 4.57304C27.1091 4.29441 27.0112 4.02734 26.8598 3.79038C26.7084 3.55343 26.5073 3.35228 26.2703 3.20093L26.2626 3.19576C25.7312 2.92571 25.1157 2.87249 24.5458 3.04732L24.5626 3.04345C24.0429 3.15367 23.5396 3.33069 23.0653 3.57009L23.1001 3.55331C22.6466 3.77963 22.1936 4.02876 21.7409 4.30069C20.8569 4.89028 20.0236 5.55261 19.2497 6.28077L19.2587 6.27173C18.4886 6.99716 17.7519 7.75658 17.0489 8.54999C16.9129 8.68596 16.777 8.83311 16.641 8.99144C16.5063 9.14825 16.3827 9.29408 16.27 9.42894C16.2678 9.4315 16.2667 9.43472 16.2667 9.43806C16.2668 9.45448 16.261 9.47038 16.2503 9.48278C16.25 9.48309 16.2498 9.48341 16.2496 9.48376C16.2348 9.50894 16.229 9.53834 16.2329 9.56724C16.2329 9.56735 16.2331 9.56734 16.2331 9.56723C16.2331 9.56718 16.2331 9.56714 16.2332 9.56714H16.6074C18.5385 9.59167 20.4114 9.7272 22.2521 9.96729L22.012 9.94147C24.036 10.2035 25.8418 10.5959 27.5882 11.1264L27.3482 11.0632C28.3317 11.3381 29.1385 11.6221 29.9246 11.95L29.78 11.8957C30.6862 12.2688 31.4529 12.6625 32.1809 13.1104L32.1086 13.0691C32.5268 13.3414 32.887 13.6099 33.2303 13.8991L33.2135 13.8849C33.5698 14.1843 33.886 14.5083 34.1726 14.8581L34.1829 14.871C34.6915 15.4764 35 16.2638 35 17.1235L34.9987 17.2383V17.2332C34.9311 18.0851 34.5432 18.8798 33.9131 19.4572L33.9106 19.4598C33.4751 19.8952 32.9832 20.2703 32.4481 20.5751L32.4145 20.5931C31.8856 20.8912 31.334 21.1472 30.7649 21.3586L30.681 21.3857C30.5218 21.4318 30.3513 21.4189 30.2008 21.3495L30.2047 21.3508C30.1259 21.316 30.0551 21.2652 29.9969 21.2017C29.9387 21.1381 29.8943 21.0632 29.8665 20.9817L29.8652 20.9778C29.8306 20.8995 29.8128 20.8148 29.813 20.7292C29.8132 20.6436 29.8315 20.5589 29.8665 20.4808L29.8652 20.4847C29.9354 20.3136 30.0671 20.175 30.2344 20.0962C30.237 20.0953 30.2395 20.0943 30.2419 20.0931C30.5127 19.9578 30.789 19.828 31.0708 19.7038C31.3544 19.5794 31.6276 19.4326 31.8879 19.2649L31.8647 19.2791C32.1035 19.1358 32.3087 18.99 32.5023 18.8299L32.4933 18.8364C32.686 18.678 32.8749 18.5081 33.0599 18.3265C33.3813 18.0167 33.5943 17.5959 33.6369 17.1273V17.1093C33.6369 16.6394 33.4717 16.207 33.1955 15.8688L33.198 15.8727C32.974 15.5581 32.7098 15.2743 32.412 15.0285L32.4042 15.0221C32.1095 14.7804 31.7981 14.56 31.4722 14.3625L31.4361 14.3418C30.6572 13.8388 29.8289 13.4167 28.9642 13.082L28.8687 13.0497C28.039 12.7253 27.1922 12.4461 26.3323 12.2133L26.1322 12.1668C25.1572 11.9173 24.1775 11.7021 23.1931 11.5214C22.238 11.3407 21.2729 11.2174 20.303 11.1522L20.2191 11.1471C19.4257 11.1015 18.6267 11.0636 17.8221 11.0335C17.0175 11.0034 16.2185 10.975 15.4251 10.9483H15.4122C15.31 10.9486 15.2087 10.9665 15.1127 11.0012L15.1191 10.9986C15.0302 11.0315 14.9575 11.0977 14.9165 11.1832L14.9152 11.1858L13.4682 13.3518C13.0309 14.0184 12.603 14.685 12.1846 15.3517C12.1111 15.4689 12.0032 15.5762 11.989 15.7139C11.989 15.7148 11.9889 15.7156 11.9887 15.7165C11.9755 15.7912 11.9813 15.868 12.0057 15.9398L12.0044 15.9359C12.4123 16.8653 12.8374 17.7831 13.2798 18.6892C13.7221 19.5953 14.2035 20.4847 14.7242 21.3573C15.2448 22.2299 15.7942 23.0796 16.3725 23.9066C16.9508 24.7336 17.5682 25.5322 18.2248 26.3023C18.8031 26.9723 19.3865 27.5815 19.9984 28.1611L20.01 28.1714C20.6102 28.7406 21.2711 29.2557 21.9797 29.7036L22.0326 29.7346C22.3399 29.9424 22.6922 30.136 23.0614 30.2961L23.104 30.3128C23.4487 30.4639 23.8488 30.5607 24.2683 30.5839H24.2773C24.6283 30.6151 24.9807 30.5423 25.2906 30.3748L25.2816 30.38C25.5759 30.2083 25.8134 29.9656 25.9735 29.6752L25.9786 29.6661C26.1477 29.3977 26.282 29.0853 26.3646 28.7536L26.3697 28.7316C26.4498 28.4055 26.5105 28.0749 26.5517 27.7416L26.5569 27.6951C26.6499 26.5738 26.6004 25.4453 26.4097 24.3364L26.4214 24.4152C26.2398 23.3387 26.013 22.2682 25.7411 21.2037C25.4236 20.116 25.0609 19.0511 24.653 18.009C24.2451 16.9669 23.8032 15.9351 23.3273 14.9136C23.2798 14.8361 23.2425 14.7528 23.2163 14.6658L23.2137 14.658C23.1802 14.5778 23.1743 14.4887 23.1969 14.4049C23.1978 14.4016 23.1982 14.3981 23.1982 14.3947C23.1982 14.2372 23.2628 14.0953 23.3686 13.9946C23.4769 13.8836 23.6191 13.8119 23.7726 13.7906H23.7738C23.7756 13.7906 23.7774 13.7905 23.7792 13.7902C23.9189 13.7691 24.0617 13.7933 24.1865 13.8594C24.1867 13.8595 24.1866 13.8598 24.1864 13.8597C24.1862 13.8596 24.1861 13.8599 24.1863 13.86C24.3237 13.9321 24.431 14.0507 24.489 14.1946L24.4903 14.1985C24.6487 14.5608 24.8186 14.9291 25.0002 15.3034C25.1818 15.6778 25.3517 16.0555 25.5101 16.4368C25.9859 17.5925 26.4166 18.7705 26.8021 19.971C27.1442 20.9881 27.4514 22.2234 27.6657 23.4923L27.6863 23.642C27.809 24.3842 27.9058 25.2903 27.9548 26.2107L27.9574 26.2778C28.0029 27.1853 27.9181 28.0947 27.7057 28.9782L27.7186 28.9136C27.673 29.0952 27.6162 29.2841 27.5482 29.4803C27.4781 29.684 27.3945 29.8828 27.2978 30.0753L27.3107 30.0469C27.01 30.7504 26.4872 31.3119 25.8328 31.6527L25.8147 31.6617C25.4029 31.8644 24.9189 31.9844 24.4077 31.9844C24.1224 31.9844 23.8462 31.947 23.5829 31.8786L23.6048 31.8837C22.9207 31.7417 22.314 31.5004 21.7655 31.1725L21.7926 31.188C21.2192 30.8483 20.669 30.471 20.1455 30.0585L20.1778 30.0831C19.238 29.3444 18.3682 28.5209 17.5794 27.6228L17.56 27.6009C16.7666 26.6947 16.0188 25.7546 15.3166 24.7805C14.5625 23.7271 13.8649 22.6344 13.2268 21.507L13.1287 21.3199C12.4601 20.1297 11.8427 18.9005 11.2764 17.632L11.208 17.4965ZM11.45 11.2063C10.9162 11.2629 10.5603 11.7999 10.7167 12.3134C10.9282 13.0078 11.866 13.146 12.2652 12.5398C12.6631 11.9357 12.1693 11.1302 11.45 11.2063ZM18.128 18.4556H18.1048C17.5626 18.4556 17.0708 18.2348 16.7171 17.8773C16.5391 17.7125 16.397 17.5126 16.2999 17.2903C16.2028 17.0679 16.1528 16.8278 16.1531 16.5852L16.1556 16.4781V16.4535C16.1556 15.9179 16.3777 15.4351 16.7339 15.0892C16.9108 14.9061 17.1228 14.7605 17.3572 14.6611C17.5917 14.5618 17.8437 14.5107 18.0983 14.5109H18.1293H18.128H18.1512C18.6934 14.5109 19.1852 14.7316 19.5388 15.0892C19.9054 15.4312 20.1339 15.9179 20.1339 16.4587V16.4845V16.4832V16.5078C20.1339 17.0473 19.9054 17.5339 19.5401 17.876L19.5388 17.8773C19.3573 18.0607 19.1412 18.2063 18.903 18.3056C18.6648 18.4049 18.4093 18.4558 18.1512 18.4556H18.1319H18.1332H18.128Z" fill="white"/>
<path d="M11.208 17.4965C11.1578 17.4117 11.0338 17.4161 10.9903 17.5045C10.9166 17.654 10.8485 17.7955 10.7859 17.9289C10.6956 18.1217 10.6048 18.32 10.5136 18.524C10.0601 19.499 9.65218 20.4903 9.2899 21.498C8.93452 22.4673 8.65741 23.4635 8.46121 24.4771L8.43926 24.6075C8.34891 25.197 8.28652 25.7864 8.2521 26.3759C8.21842 26.9965 8.28511 27.6185 8.44959 28.2179L8.44055 28.1766C8.52445 28.6258 8.7426 29.0143 9.0511 29.3086L9.05239 29.3099C9.35315 29.568 9.74426 29.7281 10.1728 29.7346H10.1741C10.3945 29.758 10.6172 29.7458 10.8337 29.6984L10.8208 29.701L11.4326 29.5655C12.0096 29.3977 12.5104 29.1769 12.9764 28.902L12.9454 28.9188C13.4101 28.6468 13.8692 28.3521 14.3227 28.0346C14.4259 27.9713 14.5364 27.921 14.6519 27.8848L14.6622 27.8823C14.7865 27.8479 14.9186 27.8542 15.0391 27.9003L15.0352 27.899C15.1483 27.9366 15.2495 28.0031 15.329 28.0918C15.4085 28.1806 15.4634 28.2886 15.4883 28.405L15.4896 28.4089C15.5203 28.5209 15.5157 28.6396 15.4764 28.7489C15.4374 28.8576 15.3659 28.9517 15.2717 29.0184C15.2707 29.0191 15.2697 29.0199 15.2689 29.0207C14.608 29.5229 13.8632 29.9966 13.0784 30.4071L12.9906 30.4484C12.229 30.8434 11.3306 31.0809 10.3767 31.0938H10.3729C9.66658 31.1362 8.96726 30.9337 8.39279 30.5207L8.40183 30.5271C7.84595 30.1092 7.43258 29.53 7.21817 28.8684L7.21171 28.8452C7.01115 28.304 6.8966 27.7348 6.87223 27.1581V27.1465C6.848 26.5616 6.87218 25.9758 6.94452 25.3949L6.93936 25.4465C7.1575 23.6368 7.58217 21.9898 8.19401 20.4369L8.14625 20.5738C8.77727 18.9317 9.51281 17.3317 10.3484 15.7836L10.2373 16.0082C10.2997 15.8934 10.3346 15.7657 10.3393 15.6352V15.6339C10.3372 15.5035 10.3132 15.3743 10.2683 15.2518L10.2709 15.2596C10.067 14.6933 9.8742 14.1267 9.69263 13.5596L9.1887 11.9832C9.16248 11.9011 9.15489 11.8121 9.11655 11.735C9.09763 11.6969 9.07123 11.6631 9.03895 11.6354C9.03759 11.6343 9.03608 11.6333 9.03447 11.6326C8.9551 11.5962 8.86506 11.5904 8.78168 11.6164C8.78152 11.6165 8.78143 11.6162 8.78158 11.6162C8.78172 11.6161 8.78164 11.6159 8.78149 11.6159C8.0117 11.7974 7.25265 12.0069 6.50436 12.2443C5.73966 12.4861 5.00313 12.8094 4.30742 13.2085L4.36163 13.1801C4.08963 13.3384 3.83027 13.5175 3.58586 13.7158L3.59748 13.7067C3.35461 13.9043 3.12197 14.1141 2.90045 14.3353C2.58735 14.6407 2.39447 15.0484 2.35702 15.4842V15.5397C2.35702 15.985 2.51063 16.3955 2.76879 16.7182L2.76621 16.7143C3.00888 17.0925 3.30189 17.4126 3.64137 17.6772L3.6504 17.6837C3.99031 17.9444 4.34141 18.1879 4.70369 18.4143C4.83966 18.4822 4.96444 18.5502 5.07803 18.6182L5.41751 18.8222C5.57955 18.9168 5.70332 19.0652 5.76731 19.2417L5.7686 19.2468C5.79712 19.3282 5.80717 19.4149 5.79802 19.5006C5.78886 19.5864 5.76074 19.669 5.71568 19.7425L5.71697 19.7399C5.679 19.8229 5.62305 19.8964 5.55317 19.9551C5.4833 20.0138 5.40125 20.0563 5.31295 20.0794L5.30908 20.0807C5.12387 20.1258 4.92854 20.1009 4.76049 20.011L4.76436 20.0136C4.23452 19.7594 3.72827 19.4588 3.25155 19.1152L3.28124 19.1358C2.81219 18.8008 2.38109 18.4156 1.9956 17.987L1.98915 17.9793C1.75766 17.7088 1.55679 17.4136 1.39022 17.0989L1.37731 17.0731C1.21758 16.7644 1.10407 16.4339 1.04041 16.0921L1.03654 16.0702C0.966746 15.6341 0.997205 15.1878 1.1256 14.7652L1.12044 14.7858C1.25067 14.3653 1.45432 13.9711 1.72195 13.6215L1.7155 13.6306C1.99302 13.2627 2.30668 12.9439 2.65649 12.6702L2.66811 12.6612C3.00501 12.3953 3.38321 12.1526 3.78465 11.9487L3.82337 11.9306C4.50472 11.5623 5.21641 11.2531 5.9506 11.0064L6.05 10.9767C6.80554 10.7271 7.58174 10.512 8.37859 10.3313C8.42894 10.3132 8.49089 10.2964 8.55543 10.2822L8.56576 10.281C8.64063 10.2655 8.70258 10.2474 8.76325 10.2267C8.75704 10.2288 8.75039 10.2251 8.74897 10.2187C8.70455 10.0187 8.66757 9.81873 8.63804 9.61877C8.60793 9.41483 8.57953 9.21088 8.55285 9.00693C8.41782 8.17812 8.33333 7.34186 8.29986 6.50279L8.29856 6.45761C8.26363 5.58904 8.366 4.72041 8.6019 3.88376L8.5877 3.94184C8.66128 3.57397 8.76712 3.24998 8.90524 2.94406L8.89362 2.97246C9.03433 2.65713 9.21903 2.36335 9.44221 2.09988L9.43834 2.10504C9.83186 1.6269 10.3619 1.28016 10.9576 1.11113L10.9796 1.10596C11.5978 0.957203 12.2433 0.96519 12.8577 1.1292L12.8306 1.12274C13.4807 1.27768 14.1021 1.5352 14.6712 1.8856L14.6441 1.87011C15.265 2.25219 15.7916 2.62265 16.2951 3.02022L16.2589 2.99311C16.388 3.11315 16.4719 3.28096 16.4848 3.46683V3.46941L16.4861 3.51072C16.4862 3.59227 16.4695 3.67296 16.4371 3.74779C16.3725 3.89674 16.2544 4.02267 16.1134 4.10322C16.0408 4.14476 15.9601 4.17221 15.8755 4.18322H15.8717C15.6953 4.2043 15.5177 4.15515 15.3773 4.0464C15.3775 4.04655 15.3773 4.0468 15.3771 4.04667C15.1057 3.86544 14.8455 3.68464 14.5964 3.50426C14.3585 3.32981 14.1121 3.1674 13.858 3.01763L13.8154 2.9944C13.5312 2.81808 13.2287 2.6731 12.9132 2.56198L12.8796 2.55166C12.5447 2.43736 12.1931 2.37977 11.8392 2.38127H11.807H11.8082H11.7902C11.5075 2.38127 11.2403 2.45097 11.0054 2.57231L11.0144 2.56844C10.7727 2.6987 10.569 2.88952 10.4232 3.12219L10.4193 3.12864C10.1996 3.41013 10.0393 3.73335 9.9482 4.07867L9.94433 4.09674C9.85498 4.43486 9.78814 4.77854 9.74426 5.12551L9.74039 5.1681C9.65003 5.95698 9.6457 6.75335 9.72748 7.54317L9.72361 7.4967C9.81396 8.38477 9.94046 9.16699 10.107 9.93502L10.0832 9.80317C10.083 9.80193 10.0812 9.80209 10.0812 9.80336C10.0813 9.83043 10.0875 9.85714 10.0993 9.88149C10.1112 9.90584 10.1284 9.92723 10.1496 9.94405C10.1935 9.97632 10.249 9.99568 10.3096 9.99568H10.32C10.9542 9.9277 11.5776 9.86531 12.1903 9.80852C12.803 9.75172 13.4149 9.70052 14.0258 9.65491C14.1461 9.63731 14.2631 9.60208 14.3731 9.55036C14.3722 9.55065 14.3716 9.5494 14.3724 9.54894C14.4747 9.49082 14.5639 9.41213 14.6343 9.31781C14.6348 9.31709 14.6353 9.31632 14.6357 9.31551C14.6362 9.3146 14.6367 9.31374 14.6373 9.31294C15.4276 8.2976 16.2705 7.32427 17.1625 6.39694L17.1521 6.40856C18.0252 5.5026 18.971 4.66982 19.9803 3.91861L20.0409 3.87472C20.5805 3.4622 21.1429 3.08038 21.7254 2.73108L21.8093 2.68461C22.409 2.32712 23.0513 2.04653 23.721 1.84946L23.7817 1.83397C24.2014 1.69827 24.6371 1.61841 25.0776 1.59647H25.0905C25.5558 1.57495 26.0206 1.64694 26.4575 1.80816L26.433 1.80041C26.9545 1.96434 27.3933 2.26639 27.7212 2.66266L27.7251 2.66783C28.04 3.06668 28.2853 3.53782 28.4324 4.05027L28.4389 4.07867C28.6118 4.59628 28.7112 5.19263 28.7112 5.81092V5.82641C28.7112 6.43179 28.6738 7.02943 28.6028 7.61545L28.6093 7.54575C28.5869 7.70409 28.5641 7.85511 28.5408 7.99882C28.5125 8.17695 28.4763 8.32927 28.4324 8.479L28.4389 8.45189C28.4303 8.53668 28.4031 8.61854 28.3594 8.6917C28.3157 8.76486 28.2565 8.82752 28.1859 8.87527C28.1842 8.87613 28.1825 8.87712 28.1809 8.87821C28.0379 8.97737 27.8621 9.01766 27.6902 8.99076C27.6898 8.9907 27.6898 8.99015 27.6902 8.99015C27.5179 8.97209 27.3594 8.88731 27.2488 8.75394L27.2475 8.75265C27.1901 8.68133 27.1483 8.59873 27.125 8.51021C27.102 8.42295 27.0973 8.33186 27.1113 8.24273C27.1114 8.24235 27.1119 8.2424 27.1119 8.24278C27.1343 7.97085 27.1683 7.69333 27.2139 7.41022C27.2565 7.1598 27.281 6.87195 27.2823 6.57765C27.3054 6.23597 27.305 5.8931 27.281 5.55147L27.2823 5.5747C27.2579 5.22075 27.2096 4.86886 27.1378 4.52141L27.1468 4.57304C27.1091 4.29441 27.0112 4.02734 26.8598 3.79038C26.7084 3.55343 26.5073 3.35228 26.2703 3.20093L26.2626 3.19576C25.7312 2.92571 25.1157 2.87249 24.5458 3.04732L24.5626 3.04345C24.0429 3.15367 23.5396 3.33069 23.0653 3.57009L23.1001 3.55331C22.6466 3.77963 22.1936 4.02876 21.7409 4.30069C20.8569 4.89028 20.0236 5.55261 19.2497 6.28077L19.2587 6.27173C18.4886 6.99716 17.7519 7.75658 17.0489 8.54999C16.9129 8.68596 16.777 8.83311 16.641 8.99144C16.5063 9.14825 16.3827 9.29408 16.27 9.42894C16.2678 9.4315 16.2667 9.43472 16.2667 9.43806C16.2668 9.45448 16.261 9.47038 16.2503 9.48278C16.25 9.48309 16.2498 9.48341 16.2496 9.48376C16.2348 9.50894 16.229 9.53834 16.2329 9.56724C16.2329 9.56735 16.2331 9.56734 16.2331 9.56723C16.2331 9.56718 16.2331 9.56714 16.2332 9.56714H16.6074C18.5385 9.59167 20.4114 9.7272 22.2521 9.96729L22.012 9.94147C24.036 10.2035 25.8418 10.5959 27.5882 11.1264L27.3482 11.0632C28.3317 11.3381 29.1385 11.6221 29.9246 11.95L29.78 11.8957C30.6862 12.2688 31.4529 12.6625 32.1809 13.1104L32.1086 13.0691C32.5268 13.3414 32.887 13.6099 33.2303 13.8991L33.2135 13.8849C33.5698 14.1843 33.886 14.5083 34.1726 14.8581L34.1829 14.871C34.6915 15.4764 35 16.2638 35 17.1235L34.9987 17.2383V17.2332C34.9311 18.0851 34.5432 18.8798 33.9131 19.4572L33.9106 19.4598C33.4751 19.8952 32.9832 20.2703 32.4481 20.5751L32.4145 20.5931C31.8856 20.8912 31.334 21.1472 30.7649 21.3586L30.681 21.3857C30.5218 21.4318 30.3513 21.4189 30.2008 21.3495L30.2047 21.3508C30.1259 21.316 30.0551 21.2652 29.9969 21.2017C29.9387 21.1381 29.8943 21.0632 29.8665 20.9817L29.8652 20.9778C29.8306 20.8995 29.8128 20.8148 29.813 20.7292C29.8132 20.6436 29.8315 20.5589 29.8665 20.4808L29.8652 20.4847C29.9354 20.3136 30.0671 20.175 30.2344 20.0962C30.237 20.0953 30.2395 20.0943 30.2419 20.0931C30.5127 19.9578 30.789 19.828 31.0708 19.7038C31.3544 19.5794 31.6276 19.4326 31.8879 19.2649L31.8647 19.2791C32.1035 19.1358 32.3087 18.99 32.5023 18.8299L32.4933 18.8364C32.686 18.678 32.8749 18.5081 33.0599 18.3265C33.3813 18.0167 33.5943 17.5959 33.6369 17.1273V17.1093C33.6369 16.6394 33.4717 16.207 33.1955 15.8688L33.198 15.8727C32.974 15.5581 32.7098 15.2743 32.412 15.0285L32.4042 15.0221C32.1095 14.7804 31.7981 14.56 31.4722 14.3625L31.4361 14.3418C30.6572 13.8388 29.8289 13.4167 28.9642 13.082L28.8687 13.0497C28.039 12.7253 27.1922 12.4461 26.3323 12.2133L26.1322 12.1668C25.1572 11.9173 24.1775 11.7021 23.1931 11.5214C22.238 11.3407 21.2729 11.2174 20.303 11.1522L20.2191 11.1471C19.4257 11.1015 18.6267 11.0636 17.8221 11.0335C17.0175 11.0034 16.2185 10.975 15.4251 10.9483H15.4122C15.31 10.9486 15.2087 10.9665 15.1127 11.0012L15.1191 10.9986C15.0302 11.0315 14.9575 11.0977 14.9165 11.1832L14.9152 11.1858L13.4682 13.3518C13.0309 14.0184 12.603 14.685 12.1846 15.3517C12.1111 15.4689 12.0032 15.5762 11.989 15.7139C11.989 15.7148 11.9889 15.7156 11.9887 15.7165C11.9755 15.7912 11.9813 15.868 12.0057 15.9398L12.0044 15.9359C12.4123 16.8653 12.8374 17.7831 13.2798 18.6892C13.7221 19.5953 14.2035 20.4847 14.7242 21.3573C15.2448 22.2299 15.7942 23.0796 16.3725 23.9066C16.9508 24.7336 17.5682 25.5322 18.2248 26.3023C18.8031 26.9723 19.3865 27.5815 19.9984 28.1611L20.01 28.1714C20.6102 28.7406 21.2711 29.2557 21.9797 29.7036L22.0326 29.7346C22.3399 29.9424 22.6922 30.136 23.0614 30.2961L23.104 30.3128C23.4487 30.4639 23.8488 30.5607 24.2683 30.5839H24.2773C24.6283 30.6151 24.9807 30.5423 25.2906 30.3748L25.2816 30.38C25.5759 30.2083 25.8134 29.9656 25.9735 29.6752L25.9786 29.6661C26.1477 29.3977 26.282 29.0853 26.3646 28.7536L26.3697 28.7316C26.4498 28.4055 26.5105 28.0749 26.5517 27.7416L26.5569 27.6951C26.6499 26.5738 26.6004 25.4453 26.4097 24.3364L26.4214 24.4152C26.2398 23.3387 26.013 22.2682 25.7411 21.2037C25.4236 20.116 25.0609 19.0511 24.653 18.009C24.2451 16.9669 23.8032 15.9351 23.3273 14.9136C23.2798 14.8361 23.2425 14.7528 23.2163 14.6658L23.2137 14.658C23.1802 14.5778 23.1743 14.4887 23.1969 14.4049C23.1978 14.4016 23.1982 14.3981 23.1982 14.3947C23.1982 14.2372 23.2628 14.0953 23.3686 13.9946C23.4769 13.8836 23.6191 13.8119 23.7726 13.7906H23.7738C23.7756 13.7906 23.7774 13.7905 23.7792 13.7902C23.9189 13.7691 24.0617 13.7933 24.1865 13.8594C24.1867 13.8595 24.1866 13.8598 24.1864 13.8597C24.1862 13.8596 24.1861 13.8599 24.1863 13.86C24.3237 13.9321 24.431 14.0507 24.489 14.1946L24.4903 14.1985C24.6487 14.5608 24.8186 14.9291 25.0002 15.3034C25.1818 15.6778 25.3517 16.0555 25.5101 16.4368C25.9859 17.5925 26.4166 18.7705 26.8021 19.971C27.1442 20.9881 27.4514 22.2234 27.6657 23.4923L27.6863 23.642C27.809 24.3842 27.9058 25.2903 27.9548 26.2107L27.9574 26.2778C28.0029 27.1853 27.9181 28.0947 27.7057 28.9782L27.7186 28.9136C27.673 29.0952 27.6162 29.2841 27.5482 29.4803C27.4781 29.684 27.3945 29.8828 27.2978 30.0753L27.3107 30.0469C27.01 30.7504 26.4872 31.3119 25.8328 31.6527L25.8147 31.6617C25.4029 31.8644 24.9189 31.9844 24.4077 31.9844C24.1224 31.9844 23.8462 31.947 23.5829 31.8786L23.6048 31.8837C22.9207 31.7417 22.314 31.5004 21.7655 31.1725L21.7926 31.188C21.2192 30.8483 20.669 30.471 20.1455 30.0585L20.1778 30.0831C19.238 29.3444 18.3682 28.5209 17.5794 27.6228L17.56 27.6009C16.7666 26.6947 16.0188 25.7546 15.3166 24.7805C14.5625 23.7271 13.8649 22.6344 13.2268 21.507L13.1287 21.3199C12.4601 20.1297 11.8427 18.9005 11.2764 17.632L11.208 17.4965ZM11.45 11.2063C10.9162 11.2629 10.5603 11.7999 10.7167 12.3134C10.9282 13.0078 11.866 13.146 12.2652 12.5398C12.6631 11.9357 12.1693 11.1302 11.45 11.2063ZM18.128 18.4556H18.1048C17.5626 18.4556 17.0708 18.2348 16.7171 17.8773C16.5391 17.7125 16.397 17.5126 16.2999 17.2903C16.2028 17.0679 16.1528 16.8278 16.1531 16.5852L16.1556 16.4781V16.4535C16.1556 15.9179 16.3777 15.4351 16.7339 15.0892C16.9108 14.9061 17.1228 14.7605 17.3572 14.6611C17.5917 14.5618 17.8437 14.5107 18.0983 14.5109H18.1293H18.128H18.1512C18.6934 14.5109 19.1852 14.7316 19.5388 15.0892C19.9054 15.4312 20.1339 15.9179 20.1339 16.4587V16.4845V16.4832V16.5078C20.1339 17.0473 19.9054 17.5339 19.5401 17.876L19.5388 17.8773C19.3573 18.0607 19.1412 18.2063 18.903 18.3056C18.6648 18.4049 18.4093 18.4558 18.1512 18.4556H18.1319H18.1332H18.128Z" stroke="white" mask="url(#path-1-outside-1_0_305)"/>
</svg>
