<svg width="34" height="29" viewBox="0 0 34 29" fill="none" xmlns="http://www.w3.org/2000/svg">
<path d="M28.7412 1.47576C28.2222 -0.366284 25.611 -0.366682 25.0919 1.47534C24.9503 1.97789 24.6028 2.40233 24.14 2.64403C22.731 3.37988 22.7087 5.40807 24.1177 6.14366L24.1775 6.17488C24.6211 6.40645 24.9554 6.80377 25.1076 7.28045C25.6702 9.042 28.163 9.04131 28.7255 7.27974C28.8778 6.80296 29.2121 6.40548 29.6558 6.17387L29.7161 6.14235C31.1246 5.40708 31.1023 3.3799 29.6937 2.6449C29.2306 2.40322 28.8829 1.97859 28.7412 1.47576ZM14.0544 3.99533C13.8382 3.13078 12.6062 3.13078 12.39 3.99533C12.3202 4.27447 12.1124 4.49952 11.8395 4.5905C11.0723 4.84625 11.0723 5.93147 11.8395 6.18722C12.1124 6.2782 12.3202 6.50326 12.39 6.78239C12.6062 7.64694 13.8382 7.64694 14.0544 6.78239C14.1241 6.50326 14.3319 6.2782 14.6049 6.18722C15.3721 5.93147 15.3721 4.84625 14.6049 4.5905C14.3319 4.49952 14.1241 4.27447 14.0544 3.99533ZM0 17.6666C0 17.4161 0.0995036 17.1759 0.276621 16.9988C0.453738 16.8217 0.69396 16.7222 0.944442 16.7222H3.77777C4.02825 16.7222 4.26847 16.8217 4.44559 16.9988C4.62271 17.1759 4.72221 17.4161 4.72221 17.6666V28.0517C4.72221 28.3022 4.62271 28.5424 4.44559 28.7195C4.26847 28.8966 4.02825 28.9961 3.77777 28.9961H0.944442C0.69396 28.9961 0.453738 28.8966 0.276621 28.7195C0.0995036 28.5424 0 28.3022 0 28.0517V17.6666ZM11.0547 16.9007C11.7125 16.6007 13.0803 16.7491 13.7295 16.8432C13.9682 16.8778 14.204 16.9271 14.4393 16.9798L19.4703 18.1081C20.0526 18.2387 20.6278 18.4009 21.2099 18.5326C21.7947 18.6649 22.5991 18.8056 23.3759 18.8056C24.8426 18.8056 23.9652 20.8135 22.9839 21.5143C22.0661 22.1704 21.3817 22.1791 21.2982 22.1775C21.2924 22.1774 21.2867 22.1772 21.2809 22.1772C20.7596 22.1708 20.7016 22.8458 21.219 22.9103C21.6374 22.9625 22.0104 23.0013 22.3002 23.0188C23.1417 23.0698 24.5857 22.4766 26.2007 21.8146C27.7732 21.1686 29.5063 20.4574 31.0023 20.21C34.0339 19.7094 34.5231 22.4171 33.5447 23.4201C32.5672 24.4231 24.7444 28.234 23.3759 28.7355C22.303 29.1284 21.0063 28.998 19.5433 28.8507C19.1382 28.8101 18.7198 28.7676 18.291 28.7355C16.5816 28.6061 15.2763 28.1905 13.9844 27.7797C12.5979 27.3396 11.2275 26.9042 9.39247 26.8296C7.88339 26.7694 6.61109 25.6506 6.61109 24.1403V21.8982C6.61109 19.8934 7.87734 18.1167 9.75485 17.4136C10.3344 17.1966 10.8176 17.0086 11.0547 16.9007Z" fill="white"/>
</svg>
