<svg width="34" height="35" viewBox="0 0 34 35" fill="none" xmlns="http://www.w3.org/2000/svg">
<path d="M33.6669 14.0949C33.666 14.0949 33.6653 14.0957 33.6655 14.0966C33.882 15.2574 34 16.4711 34 17.7375C34 27.6487 27.3667 34.6961 17.3481 34.6961C15.0697 34.6968 12.8135 34.2486 10.7084 33.377C8.60334 32.5054 6.69063 31.2276 5.07958 29.6165C3.46852 28.0055 2.1907 26.0928 1.31913 23.9877C0.447553 21.8826 -0.000693855 19.6264 8.06167e-07 17.3481C-0.000693855 15.0697 0.447553 12.8135 1.31913 10.7084C2.1907 8.60334 3.46852 6.69063 5.07958 5.07958C6.69063 3.46852 8.60334 2.1907 10.7084 1.31913C12.8135 0.447553 15.0697 -0.000693855 17.3481 8.06167e-07C21.241 8.06167e-07 24.6021 1.19047 27.3503 3.19912C28.2665 3.86874 28.2834 5.18794 27.481 5.99035L24.0663 9.40502C24.0636 9.40776 24.0589 9.40582 24.0589 9.40195C24.0589 9.40077 24.0584 9.39963 24.0575 9.39881C22.2373 7.66555 19.9274 6.77603 17.3481 6.77603C11.6241 6.77603 6.97165 11.6118 6.97165 17.3375C6.97165 23.0614 11.6241 27.9077 17.3481 27.9077C20.3265 27.9077 22.7596 26.9311 24.4301 25.3288C26.3661 23.4719 24.3404 20.8603 21.6579 20.8603H20.7308C18.8626 20.8603 17.3481 19.3458 17.3481 17.4776C17.3481 15.6094 18.8626 14.0949 20.7308 14.0949H33.6669Z" fill="white"/>
</svg>
