<svg width="34" height="21" viewBox="0 0 34 21" fill="none" xmlns="http://www.w3.org/2000/svg">
<path fill-rule="evenodd" clip-rule="evenodd" d="M17.1934 10.7499C19.837 10.7499 21.98 8.60688 21.98 5.96334C21.98 3.3198 19.837 1.17676 17.1934 1.17676C14.5499 1.17676 12.4069 3.3198 12.4069 5.96334C12.4069 8.60688 14.5499 10.7499 17.1934 10.7499Z" fill="white"/>
<path fill-rule="evenodd" clip-rule="evenodd" d="M20.899 10.1313C19.8228 11.1574 18.3578 11.7888 16.7438 11.7888C15.1298 11.7888 13.6648 11.1574 12.5886 10.1313C12.4033 10.0853 12.2179 10.0399 12.0379 10.017C11.8579 9.994 11.6838 9.994 11.5215 10.0191C11.3596 10.0437 11.2101 10.0939 11.0355 10.1564C10.8608 10.2183 10.6616 10.2931 10.4122 10.4427C10.1633 10.5923 9.86366 10.8166 9.57739 11.191C9.29058 11.5644 9.01659 12.0884 8.76717 12.7118C8.51775 13.3346 8.29343 14.0579 8.16899 14.756C8.04455 15.4536 8.01945 16.1272 8.00716 16.6378C7.99434 17.149 7.99434 17.4984 8.04455 17.8349C8.09422 18.1714 8.19356 18.4951 8.41841 18.8193C8.64273 19.1436 8.99149 19.4678 9.40274 19.7167C9.81399 19.9662 10.2877 20.1409 10.9361 20.2279C11.584 20.315 12.4065 20.315 13.4036 20.315H16.2952H16.7438H17.1924H20.084C21.0811 20.315 21.9036 20.315 22.5515 20.2279C23.1999 20.1409 23.6736 19.9662 24.0849 19.7167C24.4961 19.4678 24.8449 19.1436 25.0692 18.8193C25.294 18.4951 25.3934 18.1714 25.4431 17.8349C25.4933 17.4984 25.4933 17.149 25.4804 16.6378C25.4682 16.1272 25.4431 15.4536 25.3186 14.756C25.1942 14.0579 24.9699 13.3346 24.7204 12.7118C24.471 12.0884 24.197 11.5644 23.9102 11.191C23.6239 10.8166 23.3243 10.5923 23.0754 10.4427C22.826 10.2931 22.6268 10.2183 22.4522 10.1564C22.2775 10.0939 22.128 10.0437 21.9661 10.0191C21.8038 9.994 21.6297 9.994 21.4497 10.017C21.2697 10.0399 21.0844 10.0853 20.899 10.1313Z" fill="white"/>
<path fill-rule="evenodd" clip-rule="evenodd" d="M22.2929 8.32217C23.1436 9.09883 24.2763 9.57317 25.519 9.57317C28.1618 9.57317 30.3043 7.43013 30.3043 4.78658C30.3043 2.14304 28.1618 0 25.519 0C23.8218 0 22.3303 0.88403 21.4812 2.21675C22.4392 3.0917 23.0406 4.35231 23.0406 5.75234C23.0406 6.6978 22.7661 7.58022 22.2929 8.32217Z" fill="white"/>
<path fill-rule="evenodd" clip-rule="evenodd" d="M11.707 8.32217C10.8563 9.09883 9.7236 9.57317 8.48092 9.57317C5.83804 9.57317 3.69554 7.43013 3.69554 4.78658C3.69554 2.14304 5.83804 0 8.48092 0C10.1781 0 11.6696 0.88403 12.5187 2.21675C11.5606 3.0917 10.9593 4.35231 10.9593 5.75234C10.9593 6.6978 11.2338 7.58022 11.707 8.32217Z" fill="white"/>
<path fill-rule="evenodd" clip-rule="evenodd" d="M29.4096 9.21429C28.3651 10.2094 26.9551 10.8339 25.3976 10.8702L25.5696 11.0764C25.8565 11.4497 26.1306 11.9737 26.3802 12.5971C26.6297 13.2199 26.8541 13.9432 26.9786 14.6413C27.1031 15.3389 27.1282 16.0125 27.1405 16.5232C27.1533 17.0343 27.1533 17.3837 27.1031 17.7202C27.0534 18.0567 26.954 18.3804 26.729 18.7047C26.5618 18.9461 26.3257 19.1881 26.0462 19.398H28.5943C29.5918 19.398 30.4146 19.398 31.0627 19.3109C31.7113 19.2239 32.1853 19.0492 32.5967 18.7997C33.0081 18.5508 33.357 18.2266 33.5814 17.9024C33.8063 17.5781 33.9057 17.2544 33.9554 16.9179C34.0056 16.5814 34.0056 16.232 33.9928 15.7209C33.9805 15.2102 33.9554 14.5366 33.8309 13.839C33.7064 13.1409 33.482 12.4176 33.2325 11.7948C32.983 11.1714 32.7089 10.6474 32.422 10.2741C32.1356 9.89961 31.8358 9.67526 31.5869 9.5257C31.3373 9.37614 31.138 9.30135 30.9633 9.23939C30.7886 9.17689 30.639 9.12668 30.4771 9.10211C30.3147 9.07701 30.1405 9.07701 29.9605 9.09998C29.7804 9.12294 29.595 9.16835 29.4096 9.21429Z" fill="white"/>
<path fill-rule="evenodd" clip-rule="evenodd" d="M4.59028 9.21429C5.63482 10.2094 7.04483 10.8339 8.60229 10.8702L8.43025 11.0764C8.14334 11.4497 7.86924 11.9737 7.61973 12.5971C7.37021 13.2199 7.14581 13.9432 7.02132 14.6413C6.89683 15.3389 6.87171 16.0125 6.85943 16.5232C6.8466 17.0343 6.8466 17.3837 6.89683 17.7202C6.94652 18.0567 7.04589 18.3804 7.27083 18.7047C7.43807 18.9461 7.67423 19.1881 7.95366 19.398H5.40561C4.40808 19.398 3.58527 19.398 2.93717 19.3109C2.28854 19.2239 1.81462 19.0492 1.40321 18.7997C0.991804 18.5508 0.64291 18.2266 0.418506 17.9024C0.193567 17.5781 0.0941887 17.2544 0.0444994 16.9179C-0.00572395 16.5814 -0.00572395 16.232 0.00709915 15.7209C0.0193872 15.2102 0.0444994 14.5366 0.16899 13.839C0.293481 13.1409 0.517884 12.4176 0.7674 11.7948C1.01692 11.1714 1.29101 10.6474 1.57792 10.2741C1.86431 9.89961 2.16405 9.67526 2.41303 9.5257C2.66254 9.37614 2.86183 9.30135 3.03655 9.23939C3.21126 9.17689 3.36087 9.12668 3.52276 9.10211C3.68518 9.07701 3.85936 9.07701 4.03942 9.09998C4.21948 9.12294 4.40488 9.16835 4.59028 9.21429Z" fill="white"/>
</svg>
